<svg xmlns="http://www.w3.org/2000/svg" xmlns:xlink="http://www.w3.org/1999/xlink" version="1.1" x="0px" y="0px" viewBox="0 0 100 125" enable-background="new 0 0 100 100" xml:space="preserve"><path d="M89.405,18.436H10.595c-1.706,0-3.095,1.388-3.095,3.095V78.47c0,1.707,1.389,3.095,3.095,3.095h78.811  c1.707,0,3.095-1.388,3.095-3.095v-1.33V32.028V21.53C92.5,19.823,91.112,18.436,89.405,18.436z M10.595,19.673h78.811  c1.023,0,1.857,0.833,1.857,1.857v9.075c-0.068-0.011-0.136-0.021-0.207-0.021H8.944c-0.071,0-0.139,0.011-0.206,0.021V21.53  C8.738,20.506,9.571,19.673,10.595,19.673z M8.738,32.028c0-0.114,0.093-0.206,0.206-0.206h82.111c0.114,0,0.207,0.092,0.207,0.206  V77.14c0,0.113-0.093,0.206-0.207,0.206H8.944c-0.113,0-0.206-0.093-0.206-0.206V32.028z M89.405,80.326H10.595  c-0.991,0-1.797-0.783-1.847-1.762c0.064,0.008,0.129,0.02,0.196,0.02h82.111c0.068,0,0.133-0.012,0.197-0.02  C91.202,79.543,90.396,80.326,89.405,80.326z"/><path d="M28.178,27.788c1.45,0,2.63-1.181,2.63-2.631s-1.18-2.631-2.63-2.631s-2.631,1.181-2.631,2.631S26.728,27.788,28.178,27.788  z M28.178,23.765c0.768,0,1.393,0.625,1.393,1.393s-0.625,1.393-1.393,1.393c-0.769,0-1.393-0.625-1.393-1.393  S27.409,23.765,28.178,23.765z"/><path d="M21.458,27.788c1.451,0,2.631-1.181,2.631-2.631s-1.18-2.631-2.631-2.631c-1.45,0-2.63,1.181-2.63,2.631  S20.008,27.788,21.458,27.788z M21.458,23.765c0.769,0,1.393,0.625,1.393,1.393s-0.624,1.393-1.393,1.393  c-0.768,0-1.393-0.625-1.393-1.393S20.69,23.765,21.458,23.765z"/><path d="M14.738,27.788c1.451,0,2.631-1.181,2.631-2.631s-1.18-2.631-2.631-2.631c-1.45,0-2.63,1.181-2.63,2.631  S13.288,27.788,14.738,27.788z M14.738,23.765c0.769,0,1.393,0.625,1.393,1.393s-0.624,1.393-1.393,1.393  c-0.768,0-1.393-0.625-1.393-1.393S13.971,23.765,14.738,23.765z"/><path d="M69.859,55.592l-7.873,7.89c-0.899,0.969-0.392,1.756,1.084,3.153c0.816,0.773,1.523,1.165,2.103,1.165  c0.327,0,0.612-0.121,0.885-0.379l10.65-10.645c0.3-0.359,0.466-0.918,0.421-1.428c-0.041-0.444-0.239-0.823-0.527-1.058  L66.008,43.707c-0.332-0.329-0.65-0.49-0.974-0.49c-0.654,0-1.305,0.649-2.066,1.41c-0.6,0.6-1.119,1.119-1.338,1.616  c-0.161,0.357-0.263,0.847,0.374,1.484L69.859,55.592z M63.853,45.493c0.34-0.34,0.893-0.891,1.155-1.019  c0.029,0.021,0.071,0.055,0.124,0.109l10.64,10.624c0.055,0.044,0.111,0.108,0.124,0.252c0.018,0.208-0.069,0.441-0.1,0.481  l-10.618,10.62l-0.005,0.619v-0.619c-0.004,0-0.389-0.01-1.251-0.826c-1.014-0.959-1.13-1.254-1.151-1.264  c0.009-0.017,0.036-0.056,0.108-0.133l8.729-8.748l-8.729-8.738c-0.055-0.055-0.089-0.096-0.109-0.125  C62.909,46.436,63.385,45.962,63.853,45.493z"/><path d="M33.955,67.432c0.261,0.247,0.546,0.368,0.873,0.368c0.578,0,1.286-0.392,2.103-1.165c1.476-1.397,1.982-2.185,1.067-3.169  l-7.856-7.874l7.855-7.864c0.636-0.634,0.534-1.126,0.376-1.481c-0.223-0.502-0.744-1.022-1.348-1.625  c-0.753-0.754-1.403-1.404-2.059-1.404c-0.325,0-0.644,0.161-0.974,0.49L23.442,54.251c-0.334,0.275-0.531,0.656-0.57,1.1  c-0.046,0.506,0.12,1.065,0.457,1.467L33.955,67.432z M24.273,55.168l10.595-10.585c0.054-0.054,0.095-0.088,0.123-0.108  c0.266,0.129,0.818,0.682,1.16,1.023c0.443,0.443,0.901,0.899,1.079,1.232c-0.021,0.028-0.055,0.069-0.108,0.122l-8.729,8.738  l8.714,8.732c0.067,0.072,0.094,0.114,0.11,0.106c-0.027,0.093-0.191,0.411-1.138,1.306c-0.863,0.816-1.247,0.826-1.251,0.826  L24.242,55.983c-0.067-0.082-0.156-0.315-0.138-0.521C24.117,55.316,24.175,55.252,24.273,55.168z"/><path d="M43.306,69.363c0.935,0.454,1.53,0.649,1.996,0.649c0.849,0,1.159-0.635,1.291-0.906l12.569-25.764  c0.651-1.335-0.237-2.107-1.77-2.854c-0.838-0.408-1.454-0.599-1.94-0.599c-0.929,0-1.259,0.674-1.399,0.962L41.485,66.613  c-0.127,0.26-0.423,0.864,0.016,1.499C41.772,68.509,42.295,68.87,43.306,69.363z M42.598,67.156l12.567-25.762  c0.131-0.268,0.164-0.268,0.287-0.268c0.194,0,0.596,0.082,1.397,0.474c1.442,0.703,1.329,0.934,1.2,1.2L45.48,68.563  c-0.083,0.169-0.121,0.203-0.123,0.206c-0.001,0-0.016,0.005-0.056,0.005c-0.25,0-0.739-0.176-1.453-0.523  c-1.19-0.582-1.327-0.822-1.341-0.854C42.508,67.387,42.512,67.334,42.598,67.156z"/><text x="0" y="115" fill="#000000" font-size="5px" font-weight="bold" font-family="'Helvetica Neue', Helvetica, Arial-Unicode, Arial, Sans-serif">Created by Fernando Affonso</text><text x="0" y="120" fill="#000000" font-size="5px" font-weight="bold" font-family="'Helvetica Neue', Helvetica, Arial-Unicode, Arial, Sans-serif">from the Noun Project</text></svg>